# xmcd
# 
# Track frame offsets:
#     182
#     26085
#     72055
#     114327
#     136472
#     142030
#     169900
#     205910
# 
# Disc length: 3119
# 
# Revision: 19
# Processed by: cddbd v1.5.2PL0 Copyright (c) Steve Scherf et al.
# Submitted via: fre:ac v1.0.17
# 
DISCID=740c2d08
DTITLE=Dead Can Dance - Spiritchaser
DYEAR=1996
DGENRE=Gothic
TTITLE0=Nierika
TTITLE1=Song Of The Stars
TTITLE2=Indus
TTITLE3=Song Of The Dispossessed
TTITLE4=Dedicacé Outò
TTITLE5=The Snake And The Moon
TTITLE6=Song Of The Nile
TTITLE7=Devorzhum
EXTD=ID3G:  10 YEAR: 1996
EXTT0=
EXTT1=
EXTT2=
EXTT3=
EXTT4=
EXTT5=
EXTT6=
EXTT7=
PLAYORDER=
